<?xml version="1.0" encoding="utf-8" standalone="no"?>
<!DOCTYPE svg PUBLIC "-//W3C//DTD SVG 1.1//EN"
  "http://www.w3.org/Graphics/SVG/1.1/DTD/svg11.dtd">
<svg xmlns:xlink="http://www.w3.org/1999/xlink" width="3456pt" height="144pt" viewBox="0 0 3456 144" xmlns="http://www.w3.org/2000/svg" version="1.1">
 <metadata>
  <rdf:RDF xmlns:dc="http://purl.org/dc/elements/1.1/" xmlns:cc="http://creativecommons.org/ns#" xmlns:rdf="http://www.w3.org/1999/02/22-rdf-syntax-ns#">
   <cc:Work>
    <dc:type rdf:resource="http://purl.org/dc/dcmitype/StillImage"/>
    <dc:date>2023-09-15T22:02:54.006850</dc:date>
    <dc:format>image/svg+xml</dc:format>
    <dc:creator>
     <cc:Agent>
      <dc:title>Matplotlib v3.7.2, https://matplotlib.org/</dc:title>
     </cc:Agent>
    </dc:creator>
   </cc:Work>
  </rdf:RDF>
 </metadata>
 <defs>
  <style type="text/css">*{stroke-linejoin: round; stroke-linecap: butt}</style>
 </defs>
 <g id="figure_1">
  <g id="patch_1">
   <path d="M 0 144 
L 3456 144 
L 3456 0 
L 0 0 
z
" style="fill: #ffffff"/>
  </g>
  <g id="axes_1">
   <g id="patch_2">
    <path d="M 432 128.16 
L 3110.4 128.16 
L 3110.4 17.28 
L 432 17.28 
z
" style="fill: #ffffff"/>
   </g>
   <g id="matplotlib.axis_1">
    <g id="xtick_1">
     <g id="line2d_1">
      <defs>
       <path id="m22b38b764f" d="M 0 0 
L 0 3.5 
" style="stroke: #000000; stroke-width: 0.8"/>
      </defs>
      <g>
       <use xlink:href="#m22b38b764f" x="553.745455" y="128.16" style="stroke: #000000; stroke-width: 0.8"/>
      </g>
     </g>
     <g id="text_1">
      <!-- 0 -->
      <g transform="translate(550.564205 142.758438) scale(0.1 -0.1)">
       <defs>
        <path id="DejaVuSans-30" d="M 2034 4250 
Q 1547 4250 1301 3770 
Q 1056 3291 1056 2328 
Q 1056 1369 1301 889 
Q 1547 409 2034 409 
Q 2525 409 2770 889 
Q 3016 1369 3016 2328 
Q 3016 3291 2770 3770 
Q 2525 4250 2034 4250 
z
M 2034 4750 
Q 2819 4750 3233 4129 
Q 3647 3509 3647 2328 
Q 3647 1150 3233 529 
Q 2819 -91 2034 -91 
Q 1250 -91 836 529 
Q 422 1150 422 2328 
Q 422 3509 836 4129 
Q 1250 4750 2034 4750 
z
" transform="scale(0.015625)"/>
       </defs>
       <use xlink:href="#DejaVuSans-30"/>
      </g>
     </g>
    </g>
    <g id="xtick_2">
     <g id="line2d_2">
      <g>
       <use xlink:href="#m22b38b764f" x="706.022446" y="128.16" style="stroke: #000000; stroke-width: 0.8"/>
      </g>
     </g>
     <g id="text_2">
      <!-- 1 -->
      <g transform="translate(702.841196 142.758438) scale(0.1 -0.1)">
       <defs>
        <path id="DejaVuSans-31" d="M 794 531 
L 1825 531 
L 1825 4091 
L 703 3866 
L 703 4441 
L 1819 4666 
L 2450 4666 
L 2450 531 
L 3481 531 
L 3481 0 
L 794 0 
L 794 531 
z
" transform="scale(0.015625)"/>
       </defs>
       <use xlink:href="#DejaVuSans-31"/>
      </g>
     </g>
    </g>
    <g id="xtick_3">
     <g id="line2d_3">
      <g>
       <use xlink:href="#m22b38b764f" x="858.299437" y="128.16" style="stroke: #000000; stroke-width: 0.8"/>
      </g>
     </g>
     <g id="text_3">
      <!-- 2 -->
      <g transform="translate(855.118187 142.758438) scale(0.1 -0.1)">
       <defs>
        <path id="DejaVuSans-32" d="M 1228 531 
L 3431 531 
L 3431 0 
L 469 0 
L 469 531 
Q 828 903 1448 1529 
Q 2069 2156 2228 2338 
Q 2531 2678 2651 2914 
Q 2772 3150 2772 3378 
Q 2772 3750 2511 3984 
Q 2250 4219 1831 4219 
Q 1534 4219 1204 4116 
Q 875 4013 500 3803 
L 500 4441 
Q 881 4594 1212 4672 
Q 1544 4750 1819 4750 
Q 2544 4750 2975 4387 
Q 3406 4025 3406 3419 
Q 3406 3131 3298 2873 
Q 3191 2616 2906 2266 
Q 2828 2175 2409 1742 
Q 1991 1309 1228 531 
z
" transform="scale(0.015625)"/>
       </defs>
       <use xlink:href="#DejaVuSans-32"/>
      </g>
     </g>
    </g>
    <g id="xtick_4">
     <g id="line2d_4">
      <g>
       <use xlink:href="#m22b38b764f" x="1010.576428" y="128.16" style="stroke: #000000; stroke-width: 0.8"/>
      </g>
     </g>
     <g id="text_4">
      <!-- 3 -->
      <g transform="translate(1007.395178 142.758438) scale(0.1 -0.1)">
       <defs>
        <path id="DejaVuSans-33" d="M 2597 2516 
Q 3050 2419 3304 2112 
Q 3559 1806 3559 1356 
Q 3559 666 3084 287 
Q 2609 -91 1734 -91 
Q 1441 -91 1130 -33 
Q 819 25 488 141 
L 488 750 
Q 750 597 1062 519 
Q 1375 441 1716 441 
Q 2309 441 2620 675 
Q 2931 909 2931 1356 
Q 2931 1769 2642 2001 
Q 2353 2234 1838 2234 
L 1294 2234 
L 1294 2753 
L 1863 2753 
Q 2328 2753 2575 2939 
Q 2822 3125 2822 3475 
Q 2822 3834 2567 4026 
Q 2313 4219 1838 4219 
Q 1578 4219 1281 4162 
Q 984 4106 628 3988 
L 628 4550 
Q 988 4650 1302 4700 
Q 1616 4750 1894 4750 
Q 2613 4750 3031 4423 
Q 3450 4097 3450 3541 
Q 3450 3153 3228 2886 
Q 3006 2619 2597 2516 
z
" transform="scale(0.015625)"/>
       </defs>
       <use xlink:href="#DejaVuSans-33"/>
      </g>
     </g>
    </g>
    <g id="xtick_5">
     <g id="line2d_5">
      <g>
       <use xlink:href="#m22b38b764f" x="1162.85342" y="128.16" style="stroke: #000000; stroke-width: 0.8"/>
      </g>
     </g>
     <g id="text_5">
      <!-- 4 -->
      <g transform="translate(1159.67217 142.758438) scale(0.1 -0.1)">
       <defs>
        <path id="DejaVuSans-34" d="M 2419 4116 
L 825 1625 
L 2419 1625 
L 2419 4116 
z
M 2253 4666 
L 3047 4666 
L 3047 1625 
L 3713 1625 
L 3713 1100 
L 3047 1100 
L 3047 0 
L 2419 0 
L 2419 1100 
L 313 1100 
L 313 1709 
L 2253 4666 
z
" transform="scale(0.015625)"/>
       </defs>
       <use xlink:href="#DejaVuSans-34"/>
      </g>
     </g>
    </g>
    <g id="xtick_6">
     <g id="line2d_6">
      <g>
       <use xlink:href="#m22b38b764f" x="1315.130411" y="128.16" style="stroke: #000000; stroke-width: 0.8"/>
      </g>
     </g>
     <g id="text_6">
      <!-- 5 -->
      <g transform="translate(1311.949161 142.758438) scale(0.1 -0.1)">
       <defs>
        <path id="DejaVuSans-35" d="M 691 4666 
L 3169 4666 
L 3169 4134 
L 1269 4134 
L 1269 2991 
Q 1406 3038 1543 3061 
Q 1681 3084 1819 3084 
Q 2600 3084 3056 2656 
Q 3513 2228 3513 1497 
Q 3513 744 3044 326 
Q 2575 -91 1722 -91 
Q 1428 -91 1123 -41 
Q 819 9 494 109 
L 494 744 
Q 775 591 1075 516 
Q 1375 441 1709 441 
Q 2250 441 2565 725 
Q 2881 1009 2881 1497 
Q 2881 1984 2565 2268 
Q 2250 2553 1709 2553 
Q 1456 2553 1204 2497 
Q 953 2441 691 2322 
L 691 4666 
z
" transform="scale(0.015625)"/>
       </defs>
       <use xlink:href="#DejaVuSans-35"/>
      </g>
     </g>
    </g>
    <g id="xtick_7">
     <g id="line2d_7">
      <g>
       <use xlink:href="#m22b38b764f" x="1467.407402" y="128.16" style="stroke: #000000; stroke-width: 0.8"/>
      </g>
     </g>
     <g id="text_7">
      <!-- 6 -->
      <g transform="translate(1464.226152 142.758438) scale(0.1 -0.1)">
       <defs>
        <path id="DejaVuSans-36" d="M 2113 2584 
Q 1688 2584 1439 2293 
Q 1191 2003 1191 1497 
Q 1191 994 1439 701 
Q 1688 409 2113 409 
Q 2538 409 2786 701 
Q 3034 994 3034 1497 
Q 3034 2003 2786 2293 
Q 2538 2584 2113 2584 
z
M 3366 4563 
L 3366 3988 
Q 3128 4100 2886 4159 
Q 2644 4219 2406 4219 
Q 1781 4219 1451 3797 
Q 1122 3375 1075 2522 
Q 1259 2794 1537 2939 
Q 1816 3084 2150 3084 
Q 2853 3084 3261 2657 
Q 3669 2231 3669 1497 
Q 3669 778 3244 343 
Q 2819 -91 2113 -91 
Q 1303 -91 875 529 
Q 447 1150 447 2328 
Q 447 3434 972 4092 
Q 1497 4750 2381 4750 
Q 2619 4750 2861 4703 
Q 3103 4656 3366 4563 
z
" transform="scale(0.015625)"/>
       </defs>
       <use xlink:href="#DejaVuSans-36"/>
      </g>
     </g>
    </g>
    <g id="xtick_8">
     <g id="line2d_8">
      <g>
       <use xlink:href="#m22b38b764f" x="1619.684394" y="128.16" style="stroke: #000000; stroke-width: 0.8"/>
      </g>
     </g>
     <g id="text_8">
      <!-- 7 -->
      <g transform="translate(1616.503144 142.758438) scale(0.1 -0.1)">
       <defs>
        <path id="DejaVuSans-37" d="M 525 4666 
L 3525 4666 
L 3525 4397 
L 1831 0 
L 1172 0 
L 2766 4134 
L 525 4134 
L 525 4666 
z
" transform="scale(0.015625)"/>
       </defs>
       <use xlink:href="#DejaVuSans-37"/>
      </g>
     </g>
    </g>
    <g id="xtick_9">
     <g id="line2d_9">
      <g>
       <use xlink:href="#m22b38b764f" x="1771.961385" y="128.16" style="stroke: #000000; stroke-width: 0.8"/>
      </g>
     </g>
     <g id="text_9">
      <!-- 8 -->
      <g transform="translate(1768.780135 142.758438) scale(0.1 -0.1)">
       <defs>
        <path id="DejaVuSans-38" d="M 2034 2216 
Q 1584 2216 1326 1975 
Q 1069 1734 1069 1313 
Q 1069 891 1326 650 
Q 1584 409 2034 409 
Q 2484 409 2743 651 
Q 3003 894 3003 1313 
Q 3003 1734 2745 1975 
Q 2488 2216 2034 2216 
z
M 1403 2484 
Q 997 2584 770 2862 
Q 544 3141 544 3541 
Q 544 4100 942 4425 
Q 1341 4750 2034 4750 
Q 2731 4750 3128 4425 
Q 3525 4100 3525 3541 
Q 3525 3141 3298 2862 
Q 3072 2584 2669 2484 
Q 3125 2378 3379 2068 
Q 3634 1759 3634 1313 
Q 3634 634 3220 271 
Q 2806 -91 2034 -91 
Q 1263 -91 848 271 
Q 434 634 434 1313 
Q 434 1759 690 2068 
Q 947 2378 1403 2484 
z
M 1172 3481 
Q 1172 3119 1398 2916 
Q 1625 2713 2034 2713 
Q 2441 2713 2670 2916 
Q 2900 3119 2900 3481 
Q 2900 3844 2670 4047 
Q 2441 4250 2034 4250 
Q 1625 4250 1398 4047 
Q 1172 3844 1172 3481 
z
" transform="scale(0.015625)"/>
       </defs>
       <use xlink:href="#DejaVuSans-38"/>
      </g>
     </g>
    </g>
    <g id="xtick_10">
     <g id="line2d_10">
      <g>
       <use xlink:href="#m22b38b764f" x="1924.238376" y="128.16" style="stroke: #000000; stroke-width: 0.8"/>
      </g>
     </g>
     <g id="text_10">
      <!-- 9 -->
      <g transform="translate(1921.057126 142.758438) scale(0.1 -0.1)">
       <defs>
        <path id="DejaVuSans-39" d="M 703 97 
L 703 672 
Q 941 559 1184 500 
Q 1428 441 1663 441 
Q 2288 441 2617 861 
Q 2947 1281 2994 2138 
Q 2813 1869 2534 1725 
Q 2256 1581 1919 1581 
Q 1219 1581 811 2004 
Q 403 2428 403 3163 
Q 403 3881 828 4315 
Q 1253 4750 1959 4750 
Q 2769 4750 3195 4129 
Q 3622 3509 3622 2328 
Q 3622 1225 3098 567 
Q 2575 -91 1691 -91 
Q 1453 -91 1209 -44 
Q 966 3 703 97 
z
M 1959 2075 
Q 2384 2075 2632 2365 
Q 2881 2656 2881 3163 
Q 2881 3666 2632 3958 
Q 2384 4250 1959 4250 
Q 1534 4250 1286 3958 
Q 1038 3666 1038 3163 
Q 1038 2656 1286 2365 
Q 1534 2075 1959 2075 
z
" transform="scale(0.015625)"/>
       </defs>
       <use xlink:href="#DejaVuSans-39"/>
      </g>
     </g>
    </g>
    <g id="xtick_11">
     <g id="line2d_11">
      <g>
       <use xlink:href="#m22b38b764f" x="2076.515368" y="128.16" style="stroke: #000000; stroke-width: 0.8"/>
      </g>
     </g>
     <g id="text_11">
      <!-- 10 -->
      <g transform="translate(2070.152868 142.758438) scale(0.1 -0.1)">
       <use xlink:href="#DejaVuSans-31"/>
       <use xlink:href="#DejaVuSans-30" x="63.623047"/>
      </g>
     </g>
    </g>
    <g id="xtick_12">
     <g id="line2d_12">
      <g>
       <use xlink:href="#m22b38b764f" x="2228.792359" y="128.16" style="stroke: #000000; stroke-width: 0.8"/>
      </g>
     </g>
     <g id="text_12">
      <!-- 11 -->
      <g transform="translate(2222.429859 142.758438) scale(0.1 -0.1)">
       <use xlink:href="#DejaVuSans-31"/>
       <use xlink:href="#DejaVuSans-31" x="63.623047"/>
      </g>
     </g>
    </g>
    <g id="xtick_13">
     <g id="line2d_13">
      <g>
       <use xlink:href="#m22b38b764f" x="2381.06935" y="128.16" style="stroke: #000000; stroke-width: 0.8"/>
      </g>
     </g>
     <g id="text_13">
      <!-- 12 -->
      <g transform="translate(2374.70685 142.758438) scale(0.1 -0.1)">
       <use xlink:href="#DejaVuSans-31"/>
       <use xlink:href="#DejaVuSans-32" x="63.623047"/>
      </g>
     </g>
    </g>
    <g id="xtick_14">
     <g id="line2d_14">
      <g>
       <use xlink:href="#m22b38b764f" x="2533.346341" y="128.16" style="stroke: #000000; stroke-width: 0.8"/>
      </g>
     </g>
     <g id="text_14">
      <!-- 13 -->
      <g transform="translate(2526.983841 142.758438) scale(0.1 -0.1)">
       <use xlink:href="#DejaVuSans-31"/>
       <use xlink:href="#DejaVuSans-33" x="63.623047"/>
      </g>
     </g>
    </g>
    <g id="xtick_15">
     <g id="line2d_15">
      <g>
       <use xlink:href="#m22b38b764f" x="2685.623333" y="128.16" style="stroke: #000000; stroke-width: 0.8"/>
      </g>
     </g>
     <g id="text_15">
      <!-- 14 -->
      <g transform="translate(2679.260833 142.758438) scale(0.1 -0.1)">
       <use xlink:href="#DejaVuSans-31"/>
       <use xlink:href="#DejaVuSans-34" x="63.623047"/>
      </g>
     </g>
    </g>
    <g id="xtick_16">
     <g id="line2d_16">
      <g>
       <use xlink:href="#m22b38b764f" x="2837.900324" y="128.16" style="stroke: #000000; stroke-width: 0.8"/>
      </g>
     </g>
     <g id="text_16">
      <!-- 15 -->
      <g transform="translate(2831.537824 142.758438) scale(0.1 -0.1)">
       <use xlink:href="#DejaVuSans-31"/>
       <use xlink:href="#DejaVuSans-35" x="63.623047"/>
      </g>
     </g>
    </g>
    <g id="xtick_17">
     <g id="line2d_17">
      <g>
       <use xlink:href="#m22b38b764f" x="2990.177315" y="128.16" style="stroke: #000000; stroke-width: 0.8"/>
      </g>
     </g>
     <g id="text_17">
      <!-- 16 -->
      <g transform="translate(2983.814815 142.758438) scale(0.1 -0.1)">
       <use xlink:href="#DejaVuSans-31"/>
       <use xlink:href="#DejaVuSans-36" x="63.623047"/>
      </g>
     </g>
    </g>
   </g>
   <g id="matplotlib.axis_2">
    <g id="ytick_1">
     <g id="line2d_18">
      <defs>
       <path id="ma422eb6ead" d="M 0 0 
L -3.5 0 
" style="stroke: #000000; stroke-width: 0.8"/>
      </defs>
      <g>
       <use xlink:href="#ma422eb6ead" x="432" y="113.257704" style="stroke: #000000; stroke-width: 0.8"/>
      </g>
     </g>
     <g id="text_18">
      <!-- −1 -->
      <g transform="translate(410.257812 117.056923) scale(0.1 -0.1)">
       <defs>
        <path id="DejaVuSans-2212" d="M 678 2272 
L 4684 2272 
L 4684 1741 
L 678 1741 
L 678 2272 
z
" transform="scale(0.015625)"/>
       </defs>
       <use xlink:href="#DejaVuSans-2212"/>
       <use xlink:href="#DejaVuSans-31" x="83.789062"/>
      </g>
     </g>
    </g>
    <g id="ytick_2">
     <g id="line2d_19">
      <g>
       <use xlink:href="#ma422eb6ead" x="432" y="72.69058" style="stroke: #000000; stroke-width: 0.8"/>
      </g>
     </g>
     <g id="text_19">
      <!-- 0 -->
      <g transform="translate(418.6375 76.489799) scale(0.1 -0.1)">
       <use xlink:href="#DejaVuSans-30"/>
      </g>
     </g>
    </g>
    <g id="ytick_3">
     <g id="line2d_20">
      <g>
       <use xlink:href="#ma422eb6ead" x="432" y="32.123456" style="stroke: #000000; stroke-width: 0.8"/>
      </g>
     </g>
     <g id="text_20">
      <!-- 1 -->
      <g transform="translate(418.6375 35.922675) scale(0.1 -0.1)">
       <use xlink:href="#DejaVuSans-31"/>
      </g>
     </g>
    </g>
   </g>
   <g id="line2d_21">
    <path d="M 2988.654545 62.759565 
L 2987.131776 81.815273 
L 2985.609006 82.109491 
L 2984.086236 65.126649 
L 2982.563466 68.758519 
L 2981.040696 63.59636 
L 2979.517926 77.13785 
L 2977.995156 63.134839 
L 2976.472386 78.86382 
L 2973.426846 68.275637 
L 2971.904076 69.122891 
L 2970.381306 81.078804 
L 2967.335767 70.797087 
L 2965.812997 76.790774 
L 2964.290227 79.666679 
L 2962.767457 63.761736 
L 2961.244687 64.136774 
L 2959.721917 70.548742 
L 2958.199147 67.083413 
L 2956.676377 65.338513 
L 2955.153607 67.265495 
L 2953.630837 79.134622 
L 2952.108068 65.696889 
L 2950.585298 77.770617 
L 2949.062528 71.889779 
L 2947.539758 82.691981 
L 2946.016988 63.971778 
L 2944.494218 64.811571 
L 2942.971448 63.753679 
L 2941.448678 69.629794 
L 2939.925908 77.410973 
L 2938.403138 71.98078 
L 2936.880368 62.926056 
L 2935.357598 73.064329 
L 2933.834829 81.001782 
L 2932.312059 68.899461 
L 2930.789289 64.752631 
L 2929.266519 81.159356 
L 2927.743749 68.769088 
L 2926.220979 81.318273 
L 2924.698209 66.014839 
L 2923.175439 82.384577 
L 2921.652669 77.122927 
L 2920.129899 65.406709 
L 2918.607129 82.320513 
L 2917.08436 79.759266 
L 2915.56159 64.859996 
L 2914.03882 66.069504 
L 2912.51605 73.278264 
L 2909.47051 70.81549 
L 2907.94774 70.677747 
L 2906.42497 62.56039 
L 2904.9022 78.208517 
L 2903.37943 72.039542 
L 2901.85666 69.60416 
L 2900.33389 66.432045 
L 2898.811121 78.036545 
L 2897.288351 80.690063 
L 2895.765581 67.157747 
L 2894.242811 77.848451 
L 2892.720041 82.397852 
L 2891.197271 80.193344 
L 2889.674501 64.483896 
L 2888.151731 72.75453 
L 2886.628961 72.282073 
L 2885.106191 66.199888 
L 2883.583421 67.044233 
L 2880.537882 81.40268 
L 2879.015112 63.515227 
L 2877.492342 67.549509 
L 2875.969572 66.070129 
L 2874.446802 74.233871 
L 2872.924032 64.629838 
L 2871.401262 65.911436 
L 2869.878492 66.900031 
L 2868.355722 68.822286 
L 2866.832952 80.998144 
L 2865.310183 62.963045 
L 2863.787413 81.815871 
L 2862.264643 76.625929 
L 2860.741873 81.290935 
L 2859.219103 81.10478 
L 2857.696333 67.878574 
L 2856.173563 73.389606 
L 2854.650793 80.58572 
L 2853.128023 67.886021 
L 2851.605253 69.331609 
L 2850.082483 70.25129 
L 2848.559713 67.412842 
L 2847.036944 72.069168 
L 2845.514174 71.148668 
L 2843.991404 80.176157 
L 2842.468634 76.612144 
L 2840.945864 70.0853 
L 2839.423094 76.257644 
L 2837.900324 63.730675 
L 2836.377554 23.506507 
L 2834.854784 29.967041 
L 2833.332014 37.550058 
L 2831.809244 41.527408 
L 2830.286475 34.350676 
L 2828.763705 46.439889 
L 2827.240935 49.005154 
L 2825.718165 42.816174 
L 2822.672625 58.939469 
L 2821.149855 68.161508 
L 2819.627085 78.809812 
L 2818.104315 66.63643 
L 2816.581545 73.153151 
L 2815.058775 77.560307 
L 2813.536005 85.613387 
L 2812.013236 90.129783 
L 2810.490466 104.378095 
L 2808.967696 105.651994 
L 2807.444926 112.5687 
L 2805.922156 113.158851 
L 2804.399386 111.630973 
L 2802.876616 110.334911 
L 2801.353846 105.742172 
L 2799.831076 105.381631 
L 2798.308306 117.725042 
L 2796.785536 118.390894 
L 2795.262767 103.572593 
L 2793.739997 113.989241 
L 2792.217227 104.968754 
L 2790.694457 94.264766 
L 2789.171687 90.008386 
L 2787.648917 94.083789 
L 2786.126147 94.235157 
L 2784.603377 78.202068 
L 2783.080607 80.183492 
L 2781.557837 73.19018 
L 2780.035067 70.459005 
L 2778.512297 68.086503 
L 2776.989528 67.555132 
L 2775.466758 63.934828 
L 2773.943988 57.007093 
L 2772.421218 48.571528 
L 2770.898448 43.884894 
L 2769.375678 36.011908 
L 2767.852908 43.317099 
L 2766.330138 29.21294 
L 2764.807368 32.117648 
L 2763.284598 27.398137 
L 2761.761828 31.475515 
L 2760.239059 34.184488 
L 2758.716289 24.32305 
L 2757.193519 29.870667 
L 2755.670749 29.989927 
L 2754.147979 42.474319 
L 2752.625209 53.037338 
L 2751.102439 48.637498 
L 2749.579669 55.872783 
L 2748.056899 52.230446 
L 2746.534129 52.992833 
L 2745.011359 60.518708 
L 2743.488589 72.17903 
L 2741.96582 75.667011 
L 2740.44305 73.036595 
L 2738.92028 89.550341 
L 2737.39751 79.898442 
L 2735.87474 93.02015 
L 2734.35197 88.44288 
L 2732.8292 94.547141 
L 2731.30643 98.186244 
L 2729.78366 112.448991 
L 2728.26089 112.273971 
L 2726.73812 102.576264 
L 2725.215351 107.100153 
L 2723.692581 112.794458 
L 2722.169811 102.960758 
L 2720.647041 118.53561 
L 2719.124271 102.660711 
L 2717.601501 117.157635 
L 2716.078731 112.916766 
L 2714.555961 111.839069 
L 2713.033191 102.249768 
L 2711.510421 91.91737 
L 2709.987651 86.859491 
L 2708.464881 84.449001 
L 2706.942112 89.315532 
L 2705.419342 70.532793 
L 2703.896572 79.03786 
L 2702.373802 59.808006 
L 2700.851032 51.860063 
L 2699.328262 62.510019 
L 2697.805492 54.194428 
L 2696.282722 41.900715 
L 2694.759952 50.994682 
L 2693.237182 49.962851 
L 2691.714412 45.461621 
L 2690.191643 43.401193 
L 2688.668873 39.711869 
L 2687.146103 41.257673 
L 2685.623333 26.453078 
L 2684.100563 71.986265 
L 2682.577793 77.454588 
L 2681.055023 72.812502 
L 2679.532253 77.386115 
L 2678.009483 78.35146 
L 2676.486713 66.071313 
L 2674.963943 65.368707 
L 2673.441173 72.008251 
L 2671.918404 66.827613 
L 2670.395634 72.121904 
L 2668.872864 76.312663 
L 2667.350094 71.15612 
L 2665.827324 69.81569 
L 2664.304554 74.614408 
L 2662.781784 77.227848 
L 2661.259014 81.60871 
L 2659.736244 67.641786 
L 2658.213474 63.247861 
L 2656.690704 64.283051 
L 2655.167935 72.183095 
L 2653.645165 64.340204 
L 2652.122395 73.383466 
L 2650.599625 78.368055 
L 2649.076855 73.999305 
L 2647.554085 68.364426 
L 2646.031315 64.639494 
L 2644.508545 67.004594 
L 2642.985775 75.314991 
L 2641.463005 82.282067 
L 2639.940235 73.206974 
L 2638.417465 66.62578 
L 2636.894696 71.000468 
L 2635.371926 62.79904 
L 2633.849156 63.197745 
L 2632.326386 71.354096 
L 2630.803616 70.016077 
L 2629.280846 70.274678 
L 2627.758076 79.897254 
L 2626.235306 73.187692 
L 2624.712536 70.228336 
L 2623.189766 65.555684 
L 2621.666996 82.017294 
L 2620.144227 62.608906 
L 2618.621457 62.668768 
L 2617.098687 80.736606 
L 2615.575917 76.049665 
L 2614.053147 73.922146 
L 2612.530377 63.437366 
L 2611.007607 62.565563 
L 2609.484837 69.544115 
L 2607.962067 68.384483 
L 2606.439297 79.258671 
L 2604.916527 68.526453 
L 2603.393757 73.753984 
L 2601.870988 73.583596 
L 2600.348218 80.388276 
L 2598.825448 82.554137 
L 2597.302678 73.455673 
L 2595.779908 68.305525 
L 2594.257138 80.444079 
L 2592.734368 65.331647 
L 2591.211598 81.028197 
L 2589.688828 78.115427 
L 2588.166058 79.260543 
L 2586.643288 72.427138 
L 2585.120519 67.785322 
L 2583.597749 82.260291 
L 2582.074979 77.432722 
L 2580.552209 71.464513 
L 2579.029439 77.784461 
L 2577.506669 71.925087 
L 2575.983899 76.164918 
L 2574.461129 68.862491 
L 2572.938359 80.3549 
L 2571.415589 72.032654 
L 2569.892819 66.230865 
L 2568.370049 76.810904 
L 2566.84728 76.119308 
L 2565.32451 65.069138 
L 2563.80174 81.081143 
L 2562.27897 75.852571 
L 2560.7562 66.284272 
L 2559.23343 74.70304 
L 2557.71066 81.82166 
L 2556.18789 71.3077 
L 2554.66512 62.911285 
L 2553.14235 66.746226 
L 2551.61958 81.298707 
L 2550.096811 63.631886 
L 2548.574041 75.513153 
L 2547.051271 74.268663 
L 2545.528501 80.456451 
L 2544.005731 77.315939 
L 2540.960191 73.1371 
L 2539.437421 65.241477 
L 2537.914651 73.1287 
L 2536.391881 65.442851 
L 2534.869111 76.389171 
L 2533.346341 67.229052 
L 2531.823572 37.779006 
L 2530.300802 28.623157 
L 2528.778032 43.667629 
L 2527.255262 37.335893 
L 2525.732492 45.007074 
L 2524.209722 40.112195 
L 2522.686952 56.452475 
L 2521.164182 46.335737 
L 2519.641412 48.211969 
L 2518.118642 52.925578 
L 2516.595872 71.690011 
L 2515.073103 65.752119 
L 2513.550333 72.390765 
L 2512.027563 79.817086 
L 2510.504793 94.294865 
L 2508.982023 90.776539 
L 2507.459253 91.234553 
L 2505.936483 105.68623 
L 2504.413713 102.747524 
L 2502.890943 107.044036 
L 2501.368173 104.347395 
L 2499.845403 101.884794 
L 2498.322633 121.827922 
L 2496.799864 116.710423 
L 2495.277094 119.286942 
L 2493.754324 105.399657 
L 2492.231554 109.403825 
L 2490.708784 108.012365 
L 2489.186014 98.85929 
L 2487.663244 112.294963 
L 2486.140474 102.642137 
L 2484.617704 99.37007 
L 2483.094934 90.971816 
L 2481.572164 92.550242 
L 2480.049395 82.64433 
L 2478.526625 70.550829 
L 2477.003855 84.737423 
L 2475.481085 61.231394 
L 2473.958315 63.386198 
L 2472.435545 61.021455 
L 2470.912775 47.753985 
L 2469.390005 46.122648 
L 2467.867235 46.901099 
L 2466.344465 46.338165 
L 2464.821695 47.860274 
L 2463.298925 35.512591 
L 2461.776156 38.280007 
L 2460.253386 27.137579 
L 2458.730616 41.761431 
L 2457.207846 26.893411 
L 2455.685076 34.057049 
L 2454.162306 36.629419 
L 2452.639536 44.010294 
L 2451.116766 27.731983 
L 2449.593996 31.036368 
L 2448.071226 50.621557 
L 2446.548456 53.422297 
L 2445.025687 43.642091 
L 2443.502917 64.341178 
L 2441.980147 67.437985 
L 2440.457377 55.910117 
L 2438.934607 69.263087 
L 2437.411837 68.67947 
L 2435.889067 89.017939 
L 2434.366297 89.390572 
L 2432.843527 92.015826 
L 2431.320757 103.440027 
L 2429.797987 99.519632 
L 2428.275217 94.025993 
L 2426.752448 112.846446 
L 2425.229678 113.693851 
L 2423.706908 104.011005 
L 2422.184138 112.446995 
L 2420.661368 110.706164 
L 2419.138598 106.791731 
L 2417.615828 119.508511 
L 2416.093058 116.61041 
L 2414.570288 119.716886 
L 2413.047518 113.98966 
L 2411.524748 105.097569 
L 2410.001979 104.240725 
L 2408.479209 104.933165 
L 2406.956439 89.85872 
L 2405.433669 95.700451 
L 2403.910899 83.382782 
L 2402.388129 82.646466 
L 2400.865359 81.088631 
L 2399.342589 63.576066 
L 2397.819819 61.419118 
L 2396.297049 62.766931 
L 2394.774279 58.63928 
L 2393.251509 45.731401 
L 2391.72874 47.335403 
L 2390.20597 44.535498 
L 2388.6832 38.313221 
L 2387.16043 32.574023 
L 2385.63766 40.631719 
L 2384.11489 23.960964 
L 2382.59212 36.415689 
L 2381.06935 36.610435 
L 2379.54658 25.117278 
L 2378.02381 26.322803 
L 2376.50104 39.862576 
L 2374.978271 35.336702 
L 2373.455501 44.374912 
L 2371.932731 52.601826 
L 2370.409961 46.800207 
L 2368.887191 47.608396 
L 2367.364421 60.340398 
L 2365.841651 55.790426 
L 2364.318881 69.116175 
L 2362.796111 76.22406 
L 2361.273341 77.03156 
L 2359.750571 72.760621 
L 2358.227801 82.967126 
L 2356.705032 98.977796 
L 2355.182262 102.284912 
L 2353.659492 94.683117 
L 2352.136722 102.792779 
L 2350.613952 101.846622 
L 2349.091182 113.697418 
L 2347.568412 102.658537 
L 2346.045642 118.404975 
L 2344.522872 109.73922 
L 2343.000102 109.513357 
L 2341.477332 117.46045 
L 2339.954563 109.248538 
L 2338.431793 119.262901 
L 2336.909023 111.253444 
L 2335.386253 113.663752 
L 2333.863483 93.335857 
L 2332.340713 95.086346 
L 2330.817943 87.569103 
L 2329.295173 98.118121 
L 2327.772403 88.875461 
L 2326.249633 86.054964 
L 2323.204093 69.709308 
L 2321.681324 70.439523 
L 2320.158554 58.321918 
L 2317.113014 46.095491 
L 2315.590244 45.876262 
L 2314.067474 51.897536 
L 2312.544704 40.213981 
L 2311.021934 40.95937 
L 2309.499164 38.506588 
L 2307.976394 26.855804 
L 2306.453624 39.101155 
L 2304.930855 22.998726 
L 2303.408085 39.714208 
L 2301.885315 25.229634 
L 2300.362545 45.095078 
L 2298.839775 30.744124 
L 2297.317005 41.354659 
L 2295.794235 47.429443 
L 2294.271465 47.859833 
L 2292.748695 45.688641 
L 2291.225925 64.848616 
L 2289.703155 68.976049 
L 2288.180385 67.525476 
L 2286.657616 79.337237 
L 2285.134846 67.665522 
L 2283.612076 86.2982 
L 2282.089306 93.150003 
L 2280.566536 83.371749 
L 2279.043766 88.954854 
L 2277.520996 100.58219 
L 2275.998226 93.696793 
L 2274.475456 100.143111 
L 2272.952686 110.800995 
L 2271.429916 116.379877 
L 2269.907147 105.850246 
L 2268.384377 108.501137 
L 2266.861607 121.105461 
L 2265.338837 113.450985 
L 2263.816067 105.114696 
L 2262.293297 104.27211 
L 2260.770527 117.444638 
L 2259.247757 111.637972 
L 2257.724987 106.819036 
L 2256.202217 106.157422 
L 2254.679447 97.466532 
L 2253.156677 83.918435 
L 2251.633908 84.415725 
L 2250.111138 80.198392 
L 2248.588368 79.483562 
L 2247.065598 60.359871 
L 2245.542828 55.569415 
L 2244.020058 69.909395 
L 2242.497288 60.65976 
L 2240.974518 55.326163 
L 2239.451748 53.45795 
L 2237.928978 50.201017 
L 2236.406208 30.462392 
L 2234.883439 30.462784 
L 2233.360669 29.436913 
L 2231.837899 39.071967 
L 2230.315129 38.6054 
L 2228.792359 35.65962 
L 2227.269589 28.980114 
L 2225.746819 25.157197 
L 2224.224049 44.067166 
L 2222.701279 31.195747 
L 2221.178509 36.486687 
L 2219.655739 47.31771 
L 2218.132969 52.661774 
L 2216.6102 60.819924 
L 2215.08743 63.93601 
L 2213.56466 55.038004 
L 2212.04189 63.332257 
L 2210.51912 69.307824 
L 2208.99635 66.216079 
L 2207.47358 88.979804 
L 2205.95081 85.714276 
L 2204.42804 84.440891 
L 2202.90527 99.461815 
L 2201.3825 90.560543 
L 2199.859731 107.303896 
L 2198.336961 115.160567 
L 2196.814191 110.008514 
L 2195.291421 115.517767 
L 2193.768651 116.125363 
L 2192.245881 107.629656 
L 2190.723111 106.778723 
L 2189.200341 118.856623 
L 2187.677571 105.025979 
L 2186.154801 106.905125 
L 2184.632031 117.561061 
L 2183.109261 97.299399 
L 2181.586492 96.027171 
L 2180.063722 97.41196 
L 2178.540952 94.740486 
L 2177.018182 97.435832 
L 2175.495412 75.504028 
L 2173.972642 88.694905 
L 2172.449872 84.813642 
L 2170.927102 60.816338 
L 2169.404332 66.057406 
L 2167.881562 65.904012 
L 2166.358792 46.057858 
L 2164.836023 52.863702 
L 2163.313253 38.781321 
L 2161.790483 38.082101 
L 2160.267713 48.860733 
L 2158.744943 41.215129 
L 2157.222173 25.677652 
L 2155.699403 28.713354 
L 2154.176633 25.150076 
L 2152.653863 31.371811 
L 2151.131093 33.081745 
L 2149.608323 27.065399 
L 2148.085553 30.203881 
L 2146.562784 36.548924 
L 2145.040014 32.050842 
L 2143.517244 36.367321 
L 2141.994474 45.317976 
L 2140.471704 59.513964 
L 2138.948934 54.773312 
L 2137.426164 58.027961 
L 2134.380624 79.404261 
L 2132.857854 74.591883 
L 2131.335084 78.335612 
L 2129.812315 92.751052 
L 2128.289545 82.002477 
L 2126.766775 95.451974 
L 2125.244005 104.429027 
L 2123.721235 108.38144 
L 2122.198465 104.562064 
L 2120.675695 116.459098 
L 2119.152925 107.099404 
L 2117.630155 102.614332 
L 2116.107385 113.990307 
L 2114.584615 121.537132 
L 2113.061845 121.664576 
L 2111.539076 106.99785 
L 2110.016306 103.408664 
L 2108.493536 113.378331 
L 2105.447996 99.939925 
L 2103.925226 94.281738 
L 2102.402456 102.973395 
L 2100.879686 82.200658 
L 2099.356916 93.802723 
L 2097.834146 77.666318 
L 2096.311376 79.068873 
L 2094.788607 77.411934 
L 2093.265837 69.022894 
L 2091.743067 51.016865 
L 2090.220297 54.433263 
L 2088.697527 53.199127 
L 2087.174757 39.332813 
L 2085.651987 43.436946 
L 2084.129217 32.518034 
L 2082.606447 35.717424 
L 2081.083677 32.8024 
L 2079.560907 31.168965 
L 2078.038137 24.418317 
L 2076.515368 38.927552 
L 2074.992598 36.169413 
L 2073.469828 25.193013 
L 2071.947058 30.517895 
L 2070.424288 44.032201 
L 2068.901518 38.312145 
L 2067.378748 52.225524 
L 2065.855978 40.84411 
L 2064.333208 51.174349 
L 2062.810438 64.224833 
L 2061.287668 56.060437 
L 2059.764899 71.86801 
L 2058.242129 63.777997 
L 2056.719359 71.242414 
L 2055.196589 83.498104 
L 2053.673819 92.322511 
L 2052.151049 95.007395 
L 2050.628279 103.372657 
L 2049.105509 101.250098 
L 2047.582739 96.94406 
L 2046.059969 109.206653 
L 2044.537199 104.91452 
L 2043.014429 114.976542 
L 2041.49166 112.787836 
L 2039.96889 119.674503 
L 2038.44612 109.522902 
L 2036.92335 122.726348 
L 2035.40058 103.916426 
L 2033.87781 102.666398 
L 2032.35504 116.417866 
L 2030.83227 96.580896 
L 2029.3095 93.282321 
L 2027.78673 99.910017 
L 2026.26396 103.468581 
L 2024.741191 95.814216 
L 2023.218421 82.558583 
L 2021.695651 80.043927 
L 2020.172881 82.449372 
L 2018.650111 62.45616 
L 2017.127341 55.537825 
L 2015.604571 55.514517 
L 2014.081801 45.555771 
L 2012.559031 46.036326 
L 2011.036261 44.999637 
L 2009.513491 51.745247 
L 2007.990721 33.32332 
L 2006.467952 45.637978 
L 2004.945182 27.783583 
L 2003.422412 24.105518 
L 2001.899642 39.878379 
L 2000.376872 28.692625 
L 1998.854102 38.458566 
L 1997.331332 40.027244 
L 1995.808562 40.535499 
L 1994.285792 28.068502 
L 1992.763022 46.671652 
L 1991.240252 34.187144 
L 1989.717483 47.977648 
L 1988.194713 45.498247 
L 1986.671943 48.8111 
L 1985.149173 66.120191 
L 1982.103633 66.318051 
L 1980.580863 79.492273 
L 1979.058093 77.615455 
L 1977.535323 80.189828 
L 1976.012553 89.639344 
L 1974.489783 101.891629 
L 1972.967013 104.615162 
L 1971.444244 96.717009 
L 1969.921474 104.829873 
L 1968.398704 113.693196 
L 1966.875934 111.838442 
L 1963.830394 115.034456 
L 1962.307624 103.251611 
L 1960.784854 120.139357 
L 1959.262084 112.753568 
L 1957.739314 115.752627 
L 1956.216544 99.385762 
L 1954.693775 112.37286 
L 1953.171005 97.006904 
L 1951.648235 95.102657 
L 1950.125465 94.054664 
L 1948.602695 83.273272 
L 1947.079925 88.889351 
L 1945.557155 79.472073 
L 1944.034385 77.286707 
L 1942.511615 68.655957 
L 1940.988845 74.764587 
L 1939.466075 63.094933 
L 1937.943305 65.223236 
L 1936.420536 42.491315 
L 1934.897766 40.282291 
L 1933.374996 35.897765 
L 1931.852226 46.171342 
L 1930.329456 35.133807 
L 1928.806686 35.127022 
L 1927.283916 29.997114 
L 1925.761146 33.665242 
L 1924.238376 26.053515 
L 1922.715606 73.849924 
L 1921.192836 68.653133 
L 1919.670067 77.684551 
L 1918.147297 79.135703 
L 1916.624527 78.027969 
L 1915.101757 81.278987 
L 1913.578987 67.293352 
L 1912.056217 64.094816 
L 1910.533447 76.998924 
L 1909.010677 67.84801 
L 1907.487907 73.06711 
L 1905.965137 78.902116 
L 1904.442367 72.2946 
L 1902.919597 80.12145 
L 1901.396828 72.657007 
L 1899.874058 75.617265 
L 1898.351288 78.122504 
L 1896.828518 79.540987 
L 1895.305748 80.13488 
L 1893.782978 63.741739 
L 1892.260208 81.735031 
L 1890.737438 71.292192 
L 1889.214668 63.524793 
L 1887.691898 71.595439 
L 1886.169128 77.995685 
L 1884.646359 77.615022 
L 1883.123589 68.520027 
L 1881.600819 66.653578 
L 1880.078049 62.978595 
L 1878.555279 63.517047 
L 1877.032509 66.355356 
L 1875.509739 71.729844 
L 1873.986969 81.55655 
L 1872.464199 64.915081 
L 1870.941429 76.312404 
L 1869.418659 77.824893 
L 1867.895889 64.433528 
L 1866.37312 77.744208 
L 1864.85035 73.447176 
L 1863.32758 81.993295 
L 1861.80481 77.878957 
L 1860.28204 74.910853 
L 1858.75927 70.603009 
L 1857.2365 64.207576 
L 1855.71373 70.805972 
L 1854.19096 71.581557 
L 1852.66819 69.480554 
L 1851.14542 74.440047 
L 1849.622651 80.836546 
L 1848.099881 80.079151 
L 1846.577111 62.628022 
L 1845.054341 71.665502 
L 1843.531571 78.954996 
L 1840.486031 65.245288 
L 1838.963261 65.850498 
L 1837.440491 74.975852 
L 1835.917721 63.341796 
L 1834.394951 69.520028 
L 1832.872181 69.524522 
L 1831.349412 69.349895 
L 1829.826642 66.662374 
L 1828.303872 70.978759 
L 1826.781102 65.362338 
L 1825.258332 66.906645 
L 1823.735562 68.133388 
L 1822.212792 75.309562 
L 1820.690022 81.120353 
L 1819.167252 68.599949 
L 1817.644482 69.553366 
L 1816.121712 72.722721 
L 1814.598943 78.693007 
L 1813.076173 82.784298 
L 1811.553403 81.288197 
L 1810.030633 81.045202 
L 1808.507863 64.923591 
L 1806.985093 78.204707 
L 1805.462323 66.806549 
L 1803.939553 72.112852 
L 1802.416783 63.925629 
L 1800.894013 71.096998 
L 1799.371243 67.476232 
L 1797.848473 79.485804 
L 1796.325704 68.350336 
L 1794.802934 65.163158 
L 1793.280164 63.778233 
L 1791.757394 64.769325 
L 1790.234624 74.227613 
L 1788.711854 81.531954 
L 1787.189084 75.474376 
L 1785.666314 79.578495 
L 1784.143544 67.797352 
L 1782.620774 74.767402 
L 1781.098004 72.226245 
L 1779.575235 81.550769 
L 1778.052465 76.329837 
L 1776.529695 79.210417 
L 1775.006925 70.852681 
L 1773.484155 73.67581 
L 1771.961385 74.585504 
L 1770.438615 40.422676 
L 1768.915845 24.147179 
L 1767.393075 33.900812 
L 1765.870305 46.169933 
L 1764.347535 41.173809 
L 1762.824765 35.63091 
L 1759.779226 49.585112 
L 1758.256456 63.441145 
L 1756.733686 59.897152 
L 1755.210916 72.494412 
L 1753.688146 68.051717 
L 1752.165376 70.694058 
L 1750.642606 81.789925 
L 1749.119836 90.115175 
L 1747.597066 99.709354 
L 1746.074296 103.836917 
L 1744.551527 101.084142 
L 1743.028757 93.131277 
L 1741.505987 100.696909 
L 1739.983217 114.896565 
L 1738.460447 110.019748 
L 1736.937677 112.938245 
L 1735.414907 110.277693 
L 1733.892137 114.815409 
L 1732.369367 118.002067 
L 1730.846597 108.828639 
L 1729.323827 106.294207 
L 1727.801057 107.383097 
L 1726.278288 107.285594 
L 1724.755518 98.230689 
L 1723.232748 107.750562 
L 1721.709978 85.247811 
L 1720.187208 87.349109 
L 1718.664438 76.071642 
L 1717.141668 72.908969 
L 1715.618898 82.812813 
L 1714.096128 65.235443 
L 1712.573358 64.105059 
L 1711.050588 61.866897 
L 1708.005049 42.651626 
L 1706.482279 40.130894 
L 1704.959509 48.168906 
L 1703.436739 38.644645 
L 1701.913969 34.617978 
L 1700.391199 34.999201 
L 1698.868429 27.170262 
L 1697.345659 42.083161 
L 1695.822889 39.575589 
L 1694.300119 31.627973 
L 1692.777349 39.040548 
L 1691.25458 27.734253 
L 1689.73181 41.13045 
L 1688.20904 36.255402 
L 1686.68627 37.963437 
L 1685.1635 37.294463 
L 1683.64073 56.970701 
L 1682.11796 55.119972 
L 1680.59519 66.328063 
L 1679.07242 59.576113 
L 1677.54965 76.886162 
L 1676.02688 72.09499 
L 1674.504111 85.110609 
L 1672.981341 92.659947 
L 1671.458571 95.231522 
L 1669.935801 96.55193 
L 1668.413031 96.613156 
L 1666.890261 105.63974 
L 1665.367491 103.250921 
L 1663.844721 117.277196 
L 1662.321951 103.440418 
L 1660.799181 110.645267 
L 1659.276411 114.664019 
L 1657.753641 111.607097 
L 1656.230872 111.161358 
L 1654.708102 120.500031 
L 1653.185332 116.759182 
L 1651.662562 114.446852 
L 1650.139792 97.404639 
L 1648.617022 103.941872 
L 1647.094252 105.686409 
L 1644.048712 81.484806 
L 1641.003172 70.935801 
L 1639.480403 74.838643 
L 1637.957633 67.000074 
L 1636.434863 73.563002 
L 1634.912093 68.988499 
L 1633.389323 61.245046 
L 1631.866553 59.333223 
L 1630.343783 49.324519 
L 1628.821013 46.332376 
L 1627.298243 30.119472 
L 1625.775473 34.858939 
L 1624.252703 25.715054 
L 1622.729933 38.145704 
L 1621.207164 24.916293 
L 1619.684394 22.748809 
L 1618.161624 77.970603 
L 1616.638854 70.339846 
L 1615.116084 73.161935 
L 1613.593314 64.618592 
L 1612.070544 81.007673 
L 1610.547774 81.868589 
L 1609.025004 69.717666 
L 1607.502234 76.78641 
L 1605.979464 66.98721 
L 1604.456695 82.396205 
L 1602.933925 68.992167 
L 1601.411155 75.316347 
L 1599.888385 76.964121 
L 1598.365615 69.900572 
L 1596.842845 70.83403 
L 1595.320075 81.287793 
L 1593.797305 78.689352 
L 1592.274535 78.236694 
L 1590.751765 74.375075 
L 1589.228995 68.37532 
L 1587.706225 72.370116 
L 1586.183456 67.800066 
L 1584.660686 72.640764 
L 1583.137916 63.177239 
L 1581.615146 68.494841 
L 1580.092376 76.921019 
L 1578.569606 70.044001 
L 1577.046836 68.982865 
L 1575.524066 72.359202 
L 1574.001296 75.235627 
L 1572.478526 80.231593 
L 1570.955756 79.560458 
L 1569.432987 66.294458 
L 1567.910217 77.84448 
L 1566.387447 71.639871 
L 1564.864677 82.549229 
L 1563.341907 63.619675 
L 1561.819137 79.190458 
L 1560.296367 76.172028 
L 1558.773597 80.202299 
L 1557.250827 62.641588 
L 1555.728057 78.018133 
L 1554.205287 69.528267 
L 1552.682517 82.80998 
L 1551.159748 62.833412 
L 1549.636978 64.607131 
L 1548.114208 69.996934 
L 1546.591438 69.902869 
L 1545.068668 76.284494 
L 1543.545898 68.376169 
L 1542.023128 79.339686 
L 1540.500358 79.049524 
L 1538.977588 64.407888 
L 1537.454818 64.622058 
L 1535.932048 68.921587 
L 1534.409279 77.354295 
L 1532.886509 71.036092 
L 1531.363739 68.975708 
L 1529.840969 79.791179 
L 1528.318199 81.042693 
L 1526.795429 67.801629 
L 1525.272659 71.454203 
L 1523.749889 80.259425 
L 1522.227119 64.866316 
L 1520.704349 67.068595 
L 1519.181579 73.314434 
L 1517.658809 82.575043 
L 1516.13604 76.877057 
L 1514.61327 79.047826 
L 1513.0905 68.123055 
L 1511.56773 73.108221 
L 1510.04496 76.729315 
L 1508.52219 73.664125 
L 1506.99942 64.540185 
L 1505.47665 81.164165 
L 1503.95388 70.631727 
L 1502.43111 82.796552 
L 1500.90834 71.065738 
L 1499.385571 76.222932 
L 1497.862801 68.975166 
L 1496.340031 64.282635 
L 1494.817261 64.58982 
L 1493.294491 80.562468 
L 1491.771721 68.145225 
L 1490.248951 80.690402 
L 1488.726181 78.880445 
L 1487.203411 66.477761 
L 1485.680641 70.908578 
L 1482.635101 74.209143 
L 1481.112332 64.923213 
L 1479.589562 75.659652 
L 1478.066792 80.214905 
L 1476.544022 75.852268 
L 1475.021252 69.734594 
L 1473.498482 71.416625 
L 1471.975712 82.265256 
L 1470.452942 64.469287 
L 1468.930172 77.133246 
L 1467.407402 81.50243 
L 1465.884632 23.027868 
L 1464.361863 29.884752 
L 1462.839093 25.694283 
L 1461.316323 36.246952 
L 1459.793553 38.900942 
L 1458.270783 49.916627 
L 1456.748013 54.315534 
L 1455.225243 46.913122 
L 1453.702473 65.108903 
L 1452.179703 57.984537 
L 1450.656933 62.296626 
L 1449.134163 72.340263 
L 1447.611393 66.965643 
L 1446.088624 78.554423 
L 1444.565854 78.1406 
L 1443.043084 92.693208 
L 1441.520314 88.097823 
L 1439.997544 98.851963 
L 1438.474774 101.138512 
L 1436.952004 99.105646 
L 1435.429234 110.958347 
L 1433.906464 110.874789 
L 1432.383694 108.966127 
L 1430.860924 119.238711 
L 1429.338155 112.908498 
L 1427.815385 103.757491 
L 1426.292615 107.195871 
L 1424.769845 102.895951 
L 1423.247075 112.368175 
L 1421.724305 115.648448 
L 1420.201535 111.849381 
L 1418.678765 94.838448 
L 1417.155995 97.599968 
L 1414.110455 76.636843 
L 1412.587685 88.566785 
L 1411.064916 81.165511 
L 1409.542146 74.439128 
L 1408.019376 57.621752 
L 1406.496606 61.264591 
L 1404.973836 54.04553 
L 1403.451066 48.293126 
L 1401.928296 50.532654 
L 1400.405526 42.598909 
L 1398.882756 47.414669 
L 1397.359986 28.36322 
L 1395.837216 40.263447 
L 1394.314447 40.922834 
L 1392.791677 23.949428 
L 1391.268907 42.182871 
L 1389.746137 28.756219 
L 1388.223367 23.492985 
L 1386.700597 44.490871 
L 1385.177827 33.504429 
L 1383.655057 42.565503 
L 1382.132287 40.56935 
L 1380.609517 46.523088 
L 1379.086747 46.710091 
L 1377.563977 51.759347 
L 1376.041208 61.888183 
L 1374.518438 70.664061 
L 1372.995668 76.282377 
L 1371.472898 69.515189 
L 1369.950128 81.027047 
L 1368.427358 85.983076 
L 1366.904588 94.901241 
L 1365.381818 93.827779 
L 1363.859048 104.658777 
L 1362.336278 103.816947 
L 1360.813508 108.929769 
L 1359.290739 102.46497 
L 1357.767969 107.358128 
L 1356.245199 115.653368 
L 1354.722429 115.741399 
L 1353.199659 104.179036 
L 1351.676889 111.693184 
L 1350.154119 110.746315 
L 1348.631349 105.797342 
L 1347.108579 103.642677 
L 1345.585809 98.801121 
L 1344.063039 97.243095 
L 1342.540269 107.8772 
L 1341.0175 92.323038 
L 1339.49473 81.087658 
L 1336.44919 86.861003 
L 1334.92642 68.411462 
L 1333.40365 67.582204 
L 1331.88088 66.585452 
L 1330.35811 55.073586 
L 1328.83534 63.927876 
L 1327.31257 58.906716 
L 1325.7898 56.331723 
L 1324.267031 41.512729 
L 1322.744261 41.626664 
L 1321.221491 32.197985 
L 1319.698721 44.849398 
L 1318.175951 34.582515 
L 1316.653181 36.999923 
L 1315.130411 36.097303 
L 1313.607641 79.541984 
L 1312.084871 73.097704 
L 1310.562101 63.945542 
L 1309.039331 69.478821 
L 1307.516561 66.699336 
L 1305.993792 67.71021 
L 1304.471022 74.063374 
L 1302.948252 74.214565 
L 1301.425482 79.311196 
L 1299.902712 77.466535 
L 1298.379942 76.244909 
L 1296.857172 66.931434 
L 1295.334402 72.607896 
L 1293.811632 64.068706 
L 1290.766092 66.305293 
L 1289.243323 64.521439 
L 1287.720553 64.757972 
L 1286.197783 67.228408 
L 1284.675013 73.445891 
L 1283.152243 80.76103 
L 1281.629473 75.749362 
L 1280.106703 64.748411 
L 1278.583933 81.43835 
L 1277.061163 80.245116 
L 1275.538393 75.457227 
L 1274.015623 74.692588 
L 1272.492853 63.090654 
L 1270.970084 72.609434 
L 1269.447314 81.29184 
L 1267.924544 63.973812 
L 1266.401774 78.714204 
L 1264.879004 63.920612 
L 1263.356234 68.875946 
L 1261.833464 71.789187 
L 1260.310694 72.999699 
L 1258.787924 76.4749 
L 1257.265154 64.008994 
L 1255.742384 79.338168 
L 1254.219615 78.343388 
L 1252.696845 64.913228 
L 1251.174075 66.388453 
L 1249.651305 65.151854 
L 1248.128535 65.217985 
L 1246.605765 73.794806 
L 1245.082995 73.076476 
L 1243.560225 82.78854 
L 1242.037455 66.985754 
L 1240.514685 66.847427 
L 1238.991915 66.371415 
L 1237.469145 77.752857 
L 1235.946376 73.994923 
L 1234.423606 81.7225 
L 1232.900836 64.267742 
L 1231.378066 70.109657 
L 1229.855296 65.670492 
L 1228.332526 70.328632 
L 1226.809756 71.912363 
L 1225.286986 80.443847 
L 1223.764216 65.744605 
L 1222.241446 79.044458 
L 1220.718676 78.542812 
L 1219.195907 82.754213 
L 1217.673137 79.518811 
L 1216.150367 71.761461 
L 1214.627597 66.201436 
L 1213.104827 65.579423 
L 1211.582057 77.27383 
L 1210.059287 69.884221 
L 1208.536517 77.914462 
L 1207.013747 72.442922 
L 1205.490977 78.852841 
L 1203.968207 79.115506 
L 1202.445437 81.581556 
L 1200.922668 64.760396 
L 1199.399898 79.47414 
L 1197.877128 81.923631 
L 1196.354358 63.181124 
L 1194.831588 77.932442 
L 1193.308818 63.322308 
L 1191.786048 76.071444 
L 1190.263278 77.435633 
L 1188.740508 68.258798 
L 1187.217738 71.613563 
L 1185.694968 76.695228 
L 1184.172199 69.928253 
L 1182.649429 82.369138 
L 1181.126659 65.061574 
L 1179.603889 80.219287 
L 1178.081119 81.524547 
L 1176.558349 76.506682 
L 1175.035579 78.720525 
L 1173.512809 76.709349 
L 1171.990039 66.709964 
L 1170.467269 75.341655 
L 1168.944499 63.389218 
L 1167.421729 81.251466 
L 1165.89896 71.305972 
L 1164.37619 66.970974 
L 1162.85342 82.627504 
L 1161.33065 22.32 
L 1159.80788 32.520198 
L 1158.28511 28.939272 
L 1156.76234 46.390821 
L 1155.23957 37.256442 
L 1153.7168 50.022899 
L 1152.19403 37.02161 
L 1150.67126 53.067318 
L 1149.148491 58.313759 
L 1147.625721 65.703009 
L 1146.102951 58.263889 
L 1144.580181 76.17858 
L 1143.057411 77.614553 
L 1141.534641 85.953722 
L 1140.011871 81.797809 
L 1138.489101 86.853035 
L 1136.966331 87.275404 
L 1135.443561 100.02959 
L 1133.920791 106.919726 
L 1132.398021 109.330082 
L 1130.875252 104.792426 
L 1129.352482 116.963823 
L 1127.829712 104.51119 
L 1126.306942 108.175387 
L 1124.784172 123.12 
L 1123.261402 116.69602 
L 1121.738632 103.34239 
L 1120.215862 109.278467 
L 1118.693092 112.676333 
L 1117.170322 96.672734 
L 1115.647552 99.840657 
L 1114.124783 102.565496 
L 1112.602013 92.670054 
L 1111.079243 89.916699 
L 1109.556473 84.292253 
L 1108.033703 86.57152 
L 1104.988163 78.927088 
L 1103.465393 68.260343 
L 1101.942623 53.857677 
L 1100.419853 57.268092 
L 1098.897083 43.663933 
L 1097.374313 55.666886 
L 1095.851544 35.524685 
L 1094.328774 34.722788 
L 1092.806004 39.87409 
L 1091.283234 25.583967 
L 1089.760464 42.131304 
L 1088.237694 24.288601 
L 1086.714924 27.739083 
L 1085.192154 32.381831 
L 1083.669384 40.536245 
L 1082.146614 38.494213 
L 1080.623844 28.919413 
L 1079.101075 38.744534 
L 1077.578305 47.739394 
L 1076.055535 43.230322 
L 1074.532765 56.857401 
L 1073.009995 60.369512 
L 1071.487225 62.114869 
L 1069.964455 68.776583 
L 1068.441685 80.015349 
L 1066.918915 77.5219 
L 1065.396145 71.44588 
L 1063.873375 86.570919 
L 1062.350605 87.197586 
L 1060.827836 96.269066 
L 1059.305066 103.722699 
L 1057.782296 111.849919 
L 1056.259526 98.690878 
L 1054.736756 109.439991 
L 1053.213986 113.862072 
L 1051.691216 102.009907 
L 1050.168446 103.163181 
L 1048.645676 110.797883 
L 1047.122906 113.942904 
L 1045.600136 112.477884 
L 1044.077367 115.929389 
L 1042.554597 100.521304 
L 1041.031827 97.510917 
L 1039.509057 109.225366 
L 1037.986287 93.558744 
L 1036.463517 101.310891 
L 1034.940747 98.950773 
L 1033.417977 89.827998 
L 1031.895207 77.055342 
L 1030.372437 82.755671 
L 1028.849667 60.472858 
L 1027.326897 66.86987 
L 1025.804128 62.972457 
L 1024.281358 47.41546 
L 1022.758588 44.478753 
L 1021.235818 37.509326 
L 1019.713048 50.774662 
L 1018.190278 38.263917 
L 1016.667508 27.896946 
L 1015.144738 43.647505 
L 1013.621968 31.767227 
L 1012.099198 31.52819 
L 1010.576428 34.730294 
L 1009.053659 73.189489 
L 1007.530889 72.70831 
L 1006.008119 79.752316 
L 1004.485349 71.018843 
L 1002.962579 63.589419 
L 1001.439809 73.958398 
L 999.917039 74.443995 
L 998.394269 67.011446 
L 996.871499 66.022938 
L 995.348729 79.450091 
L 993.825959 76.350295 
L 992.303189 68.20202 
L 990.78042 73.1717 
L 989.25765 77.045973 
L 987.73488 79.074833 
L 986.21211 79.469333 
L 984.68934 74.533431 
L 983.16657 78.574267 
L 981.6438 76.460143 
L 980.12103 68.322333 
L 978.59826 65.648498 
L 977.07549 64.478078 
L 975.55272 76.755905 
L 974.029951 82.632708 
L 972.507181 67.857587 
L 970.984411 70.457928 
L 969.461641 81.232803 
L 967.938871 70.604531 
L 966.416101 71.172974 
L 964.893331 63.546568 
L 963.370561 69.891609 
L 961.847791 79.935295 
L 960.325021 78.838148 
L 958.802251 81.744456 
L 957.279481 78.86519 
L 955.756712 81.342188 
L 954.233942 68.067568 
L 952.711172 80.268785 
L 951.188402 78.605186 
L 949.665632 75.811865 
L 948.142862 70.355134 
L 946.620092 66.189322 
L 945.097322 77.630009 
L 943.574552 76.82735 
L 942.051782 71.847696 
L 940.529012 79.900661 
L 939.006243 81.927605 
L 937.483473 69.499798 
L 935.960703 81.465551 
L 934.437933 68.618094 
L 932.915163 81.975365 
L 931.392393 82.694686 
L 929.869623 77.564135 
L 928.346853 62.963556 
L 926.824083 72.781856 
L 925.301313 70.715888 
L 923.778543 80.985085 
L 922.255773 65.244328 
L 920.733004 64.414279 
L 919.210234 82.250558 
L 917.687464 80.829937 
L 916.164694 71.659065 
L 914.641924 79.625738 
L 913.119154 71.865471 
L 911.596384 66.315056 
L 910.073614 63.607467 
L 908.550844 76.146197 
L 907.028074 78.792845 
L 905.505304 74.208163 
L 903.982535 70.466359 
L 902.459765 78.347881 
L 900.936995 65.172854 
L 899.414225 72.50067 
L 897.891455 67.909942 
L 894.845915 73.671175 
L 893.323145 75.596194 
L 891.800375 79.462041 
L 890.277605 81.768541 
L 888.754835 65.87154 
L 887.232065 77.017635 
L 885.709296 78.126468 
L 884.186526 80.335787 
L 882.663756 75.935326 
L 881.140986 71.016842 
L 879.618216 74.861715 
L 878.095446 72.443638 
L 876.572676 73.965406 
L 875.049906 67.912288 
L 873.527136 75.260682 
L 872.004366 64.893885 
L 870.481596 62.87139 
L 868.958827 72.842331 
L 867.436057 80.315506 
L 865.913287 68.647245 
L 864.390517 79.705896 
L 862.867747 71.516288 
L 861.344977 65.224761 
L 859.822207 72.708544 
L 858.299437 81.291016 
L 856.776667 79.188342 
L 855.253897 66.410751 
L 853.731127 71.827787 
L 852.208357 65.994154 
L 850.685588 74.879461 
L 849.162818 74.621847 
L 847.640048 74.849879 
L 846.117278 69.527481 
L 844.594508 81.481843 
L 843.071738 69.316493 
L 841.548968 74.839917 
L 840.026198 69.908478 
L 838.503428 73.552748 
L 836.980658 67.951788 
L 835.457888 72.908507 
L 833.935119 74.323717 
L 832.412349 79.043982 
L 830.889579 80.758986 
L 829.366809 66.486242 
L 827.844039 73.140222 
L 826.321269 62.733304 
L 824.798499 80.814654 
L 823.275729 74.506804 
L 821.752959 64.278158 
L 820.230189 63.57882 
L 818.707419 64.58057 
L 817.184649 63.897167 
L 815.66188 73.573997 
L 814.13911 65.982271 
L 812.61634 73.917795 
L 811.09357 74.691788 
L 809.5708 73.164735 
L 808.04803 63.138106 
L 806.52526 62.712631 
L 805.00249 64.772201 
L 803.47972 65.011942 
L 801.95695 73.905269 
L 800.43418 69.685979 
L 798.911411 80.177295 
L 797.388641 81.406884 
L 795.865871 70.831017 
L 794.343101 77.708924 
L 792.820331 65.493536 
L 791.297561 72.32017 
L 789.774791 75.446185 
L 788.252021 77.837189 
L 785.206481 64.47176 
L 783.683711 70.762161 
L 780.638172 82.407028 
L 779.115402 71.252812 
L 777.592632 82.693973 
L 776.069862 72.183565 
L 774.547092 74.551353 
L 773.024322 73.437084 
L 771.501552 75.828773 
L 769.978782 72.279674 
L 768.456012 72.76703 
L 766.933242 74.449394 
L 765.410472 73.137699 
L 763.887703 62.951853 
L 762.364933 80.89951 
L 760.842163 64.934491 
L 759.319393 75.26931 
L 757.796623 70.626373 
L 756.273853 64.729351 
L 754.751083 82.545293 
L 753.228313 82.305847 
L 751.705543 63.717263 
L 750.182773 65.074544 
L 748.660003 63.050496 
L 747.137233 70.018704 
L 745.614464 68.2821 
L 744.091694 66.2314 
L 742.568924 77.223772 
L 741.046154 72.728166 
L 739.523384 77.096956 
L 738.000614 68.220837 
L 736.477844 78.797589 
L 734.955074 70.418154 
L 733.432304 67.33562 
L 731.909534 75.067649 
L 730.386764 66.373807 
L 728.863995 62.588241 
L 727.341225 76.377432 
L 725.818455 79.923944 
L 724.295685 71.514661 
L 722.772915 74.827384 
L 721.250145 73.023191 
L 719.727375 64.979577 
L 718.204605 64.553819 
L 716.681835 80.340162 
L 715.159065 77.57021 
L 713.636295 65.96893 
L 712.113525 67.558977 
L 710.590756 79.279455 
L 709.067986 73.642981 
L 707.545216 66.583739 
L 706.022446 63.184966 
L 704.499676 36.140362 
L 702.976906 42.193262 
L 701.454136 40.093341 
L 699.931366 29.981644 
L 698.408596 34.500021 
L 696.885826 38.625005 
L 695.363056 36.959979 
L 693.840287 58.266186 
L 692.317517 55.488249 
L 690.794747 59.503073 
L 689.271977 70.312895 
L 687.749207 60.175845 
L 686.226437 80.925956 
L 684.703667 74.55734 
L 683.180897 94.976667 
L 681.658127 96.808353 
L 680.135357 91.260571 
L 678.612587 104.964624 
L 677.089817 106.213894 
L 675.567048 108.803612 
L 674.044278 109.035842 
L 672.521508 108.313245 
L 670.998738 109.822253 
L 669.475968 114.668962 
L 667.953198 104.212117 
L 666.430428 117.015259 
L 664.907658 107.680761 
L 663.384888 107.342724 
L 661.862118 106.06106 
L 660.339348 114.224238 
L 658.816579 111.845667 
L 657.293809 90.851271 
L 655.771039 86.327705 
L 654.248269 80.025941 
L 652.725499 94.93152 
L 651.202729 72.283723 
L 649.679959 75.29786 
L 648.157189 70.407368 
L 646.634419 68.841743 
L 645.111649 50.12508 
L 643.588879 59.378883 
L 642.06611 46.108521 
L 640.54334 43.822047 
L 639.02057 39.136554 
L 637.4978 33.793022 
L 635.97503 34.2069 
L 634.45226 41.494767 
L 632.92949 31.935278 
L 631.40672 32.68963 
L 629.88395 27.797772 
L 628.36118 41.1089 
L 626.83841 42.890751 
L 625.31564 43.872088 
L 623.792871 37.219609 
L 622.270101 44.732878 
L 620.747331 43.536063 
L 619.224561 52.144117 
L 617.701791 56.62617 
L 616.179021 63.891196 
L 614.656251 56.345712 
L 613.133481 64.515596 
L 611.610711 68.624551 
L 610.087941 83.237739 
L 608.565171 73.340276 
L 607.042402 77.532157 
L 605.519632 92.966089 
L 603.996862 94.354148 
L 602.474092 107.581212 
L 600.951322 92.420303 
L 599.428552 114.160044 
L 597.905782 114.697267 
L 596.383012 101.840361 
L 594.860242 112.155009 
L 593.337472 103.194057 
L 591.814702 117.608278 
L 590.291932 122.573215 
L 588.769163 106.627176 
L 587.246393 107.195834 
L 585.723623 106.916455 
L 584.200853 115.445731 
L 582.678083 104.511477 
L 581.155313 105.581987 
L 579.632543 93.076134 
L 578.109773 99.092485 
L 576.587003 77.121441 
L 575.064233 76.241484 
L 573.541463 80.129657 
L 572.018694 67.221671 
L 570.495924 74.332668 
L 568.973154 66.380578 
L 567.450384 60.17854 
L 565.927614 57.535238 
L 564.404844 50.120264 
L 562.882074 33.217719 
L 561.359304 48.09345 
L 559.836534 40.066006 
L 558.313764 27.439579 
L 556.790994 36.335203 
L 555.268224 22.439234 
L 553.745455 30.56328 
L 553.745455 30.56328 
" clip-path="url(#p23e0790e42)" style="fill: none; stroke: #1f77b4; stroke-width: 1.5; stroke-linecap: square"/>
   </g>
   <g id="patch_3">
    <path d="M 432 128.16 
L 432 17.28 
" style="fill: none; stroke: #000000; stroke-width: 0.8; stroke-linejoin: miter; stroke-linecap: square"/>
   </g>
   <g id="patch_4">
    <path d="M 3110.4 128.16 
L 3110.4 17.28 
" style="fill: none; stroke: #000000; stroke-width: 0.8; stroke-linejoin: miter; stroke-linecap: square"/>
   </g>
   <g id="patch_5">
    <path d="M 432 128.16 
L 3110.4 128.16 
" style="fill: none; stroke: #000000; stroke-width: 0.8; stroke-linejoin: miter; stroke-linecap: square"/>
   </g>
   <g id="patch_6">
    <path d="M 432 17.28 
L 3110.4 17.28 
" style="fill: none; stroke: #000000; stroke-width: 0.8; stroke-linejoin: miter; stroke-linecap: square"/>
   </g>
   <g id="text_21">
    <!-- Bit stream: 1001010101111010 -->
    <g transform="translate(1675.126875 11.28) scale(0.12 -0.12)">
     <defs>
      <path id="DejaVuSans-42" d="M 1259 2228 
L 1259 519 
L 2272 519 
Q 2781 519 3026 730 
Q 3272 941 3272 1375 
Q 3272 1813 3026 2020 
Q 2781 2228 2272 2228 
L 1259 2228 
z
M 1259 4147 
L 1259 2741 
L 2194 2741 
Q 2656 2741 2882 2914 
Q 3109 3088 3109 3444 
Q 3109 3797 2882 3972 
Q 2656 4147 2194 4147 
L 1259 4147 
z
M 628 4666 
L 2241 4666 
Q 2963 4666 3353 4366 
Q 3744 4066 3744 3513 
Q 3744 3084 3544 2831 
Q 3344 2578 2956 2516 
Q 3422 2416 3680 2098 
Q 3938 1781 3938 1306 
Q 3938 681 3513 340 
Q 3088 0 2303 0 
L 628 0 
L 628 4666 
z
" transform="scale(0.015625)"/>
      <path id="DejaVuSans-69" d="M 603 3500 
L 1178 3500 
L 1178 0 
L 603 0 
L 603 3500 
z
M 603 4863 
L 1178 4863 
L 1178 4134 
L 603 4134 
L 603 4863 
z
" transform="scale(0.015625)"/>
      <path id="DejaVuSans-74" d="M 1172 4494 
L 1172 3500 
L 2356 3500 
L 2356 3053 
L 1172 3053 
L 1172 1153 
Q 1172 725 1289 603 
Q 1406 481 1766 481 
L 2356 481 
L 2356 0 
L 1766 0 
Q 1100 0 847 248 
Q 594 497 594 1153 
L 594 3053 
L 172 3053 
L 172 3500 
L 594 3500 
L 594 4494 
L 1172 4494 
z
" transform="scale(0.015625)"/>
      <path id="DejaVuSans-20" transform="scale(0.015625)"/>
      <path id="DejaVuSans-73" d="M 2834 3397 
L 2834 2853 
Q 2591 2978 2328 3040 
Q 2066 3103 1784 3103 
Q 1356 3103 1142 2972 
Q 928 2841 928 2578 
Q 928 2378 1081 2264 
Q 1234 2150 1697 2047 
L 1894 2003 
Q 2506 1872 2764 1633 
Q 3022 1394 3022 966 
Q 3022 478 2636 193 
Q 2250 -91 1575 -91 
Q 1294 -91 989 -36 
Q 684 19 347 128 
L 347 722 
Q 666 556 975 473 
Q 1284 391 1588 391 
Q 1994 391 2212 530 
Q 2431 669 2431 922 
Q 2431 1156 2273 1281 
Q 2116 1406 1581 1522 
L 1381 1569 
Q 847 1681 609 1914 
Q 372 2147 372 2553 
Q 372 3047 722 3315 
Q 1072 3584 1716 3584 
Q 2034 3584 2315 3537 
Q 2597 3491 2834 3397 
z
" transform="scale(0.015625)"/>
      <path id="DejaVuSans-72" d="M 2631 2963 
Q 2534 3019 2420 3045 
Q 2306 3072 2169 3072 
Q 1681 3072 1420 2755 
Q 1159 2438 1159 1844 
L 1159 0 
L 581 0 
L 581 3500 
L 1159 3500 
L 1159 2956 
Q 1341 3275 1631 3429 
Q 1922 3584 2338 3584 
Q 2397 3584 2469 3576 
Q 2541 3569 2628 3553 
L 2631 2963 
z
" transform="scale(0.015625)"/>
      <path id="DejaVuSans-65" d="M 3597 1894 
L 3597 1613 
L 953 1613 
Q 991 1019 1311 708 
Q 1631 397 2203 397 
Q 2534 397 2845 478 
Q 3156 559 3463 722 
L 3463 178 
Q 3153 47 2828 -22 
Q 2503 -91 2169 -91 
Q 1331 -91 842 396 
Q 353 884 353 1716 
Q 353 2575 817 3079 
Q 1281 3584 2069 3584 
Q 2775 3584 3186 3129 
Q 3597 2675 3597 1894 
z
M 3022 2063 
Q 3016 2534 2758 2815 
Q 2500 3097 2075 3097 
Q 1594 3097 1305 2825 
Q 1016 2553 972 2059 
L 3022 2063 
z
" transform="scale(0.015625)"/>
      <path id="DejaVuSans-61" d="M 2194 1759 
Q 1497 1759 1228 1600 
Q 959 1441 959 1056 
Q 959 750 1161 570 
Q 1363 391 1709 391 
Q 2188 391 2477 730 
Q 2766 1069 2766 1631 
L 2766 1759 
L 2194 1759 
z
M 3341 1997 
L 3341 0 
L 2766 0 
L 2766 531 
Q 2569 213 2275 61 
Q 1981 -91 1556 -91 
Q 1019 -91 701 211 
Q 384 513 384 1019 
Q 384 1609 779 1909 
Q 1175 2209 1959 2209 
L 2766 2209 
L 2766 2266 
Q 2766 2663 2505 2880 
Q 2244 3097 1772 3097 
Q 1472 3097 1187 3025 
Q 903 2953 641 2809 
L 641 3341 
Q 956 3463 1253 3523 
Q 1550 3584 1831 3584 
Q 2591 3584 2966 3190 
Q 3341 2797 3341 1997 
z
" transform="scale(0.015625)"/>
      <path id="DejaVuSans-6d" d="M 3328 2828 
Q 3544 3216 3844 3400 
Q 4144 3584 4550 3584 
Q 5097 3584 5394 3201 
Q 5691 2819 5691 2113 
L 5691 0 
L 5113 0 
L 5113 2094 
Q 5113 2597 4934 2840 
Q 4756 3084 4391 3084 
Q 3944 3084 3684 2787 
Q 3425 2491 3425 1978 
L 3425 0 
L 2847 0 
L 2847 2094 
Q 2847 2600 2669 2842 
Q 2491 3084 2119 3084 
Q 1678 3084 1418 2786 
Q 1159 2488 1159 1978 
L 1159 0 
L 581 0 
L 581 3500 
L 1159 3500 
L 1159 2956 
Q 1356 3278 1631 3431 
Q 1906 3584 2284 3584 
Q 2666 3584 2933 3390 
Q 3200 3197 3328 2828 
z
" transform="scale(0.015625)"/>
      <path id="DejaVuSans-3a" d="M 750 794 
L 1409 794 
L 1409 0 
L 750 0 
L 750 794 
z
M 750 3309 
L 1409 3309 
L 1409 2516 
L 750 2516 
L 750 3309 
z
" transform="scale(0.015625)"/>
     </defs>
     <use xlink:href="#DejaVuSans-42"/>
     <use xlink:href="#DejaVuSans-69" x="68.603516"/>
     <use xlink:href="#DejaVuSans-74" x="96.386719"/>
     <use xlink:href="#DejaVuSans-20" x="135.595703"/>
     <use xlink:href="#DejaVuSans-73" x="167.382812"/>
     <use xlink:href="#DejaVuSans-74" x="219.482422"/>
     <use xlink:href="#DejaVuSans-72" x="258.691406"/>
     <use xlink:href="#DejaVuSans-65" x="297.554688"/>
     <use xlink:href="#DejaVuSans-61" x="359.078125"/>
     <use xlink:href="#DejaVuSans-6d" x="420.357422"/>
     <use xlink:href="#DejaVuSans-3a" x="517.769531"/>
     <use xlink:href="#DejaVuSans-20" x="551.460938"/>
     <use xlink:href="#DejaVuSans-31" x="583.248047"/>
     <use xlink:href="#DejaVuSans-30" x="646.871094"/>
     <use xlink:href="#DejaVuSans-30" x="710.494141"/>
     <use xlink:href="#DejaVuSans-31" x="774.117188"/>
     <use xlink:href="#DejaVuSans-30" x="837.740234"/>
     <use xlink:href="#DejaVuSans-31" x="901.363281"/>
     <use xlink:href="#DejaVuSans-30" x="964.986328"/>
     <use xlink:href="#DejaVuSans-31" x="1028.609375"/>
     <use xlink:href="#DejaVuSans-30" x="1092.232422"/>
     <use xlink:href="#DejaVuSans-31" x="1155.855469"/>
     <use xlink:href="#DejaVuSans-31" x="1219.478516"/>
     <use xlink:href="#DejaVuSans-31" x="1283.101562"/>
     <use xlink:href="#DejaVuSans-31" x="1346.724609"/>
     <use xlink:href="#DejaVuSans-30" x="1410.347656"/>
     <use xlink:href="#DejaVuSans-31" x="1473.970703"/>
     <use xlink:href="#DejaVuSans-30" x="1537.59375"/>
    </g>
   </g>
  </g>
 </g>
 <defs>
  <clipPath id="p23e0790e42">
   <rect x="432" y="17.28" width="2678.4" height="110.88"/>
  </clipPath>
 </defs>
</svg>
